{"title":"Skyfall 2012 TS XViD - INSPiRAL","uid":7821740,"size":1697990139,"categoryP":"video","categoryS":"movies","magnet":"?xt=urn:btih:6850305104b00a67bcca3ad568cc2a8d65570891&amp;dn=Skyfall+2012+TS+XViD+-+INSPiRAL&amp;tr=udp%3A%2F%2Ftracker.openbittorrent.com%3A80&amp;tr=udp%3A%2F%2Fopen.demonii.com%3A1337&amp;tr=udp%3A%2F%2Ftracker.coppersurfer.tk%3A6969&amp;tr=udp%3A%2F%2Fexodus.desync.com%3A6969","seeders":0,"leechers":0,"uploader":"Acesn8s","files":-1,"time":1352839068,"description":"Skyfall 2012 TS XViD - INSPiRAL\n\n[b][color=Blue]SOURCES:\n\nVIDEO -  iLG THANKS\nAUDIO -  Jiinx/UNiQUE THANKS\nSUBS  - None Add\n\nSTATS:\n\nVideo\nID                               : 0\nFormat                           : MPEG-4 Visual\nFormat profile                   : Advanced Simple@L5\nFormat settings, BVOP            : 2\nFormat settings, QPel            : No\nFormat settings, GMC             : No warppoints\nFormat settings, Matrix          : Default (MPEG)\nMuxing mode                      : Packed bitstream\nCodec ID                         : XVID\nCodec ID/Hint                    : XviD\nDuration                         : 2h 17mn\nBit rate                         : 1 495 Kbps\nWidth                            : 720 pixels\nHeight                           : 304 pixels\nDisplay aspect ratio             : 2.35:1\nFrame rate                       : 25.000 fps\nColor space                      : YUV\nChroma subsampling               : 4:2:0\nBit depth                        : 8 bits\nScan type                        : Progressive\nCompression mode                 : Lossy\nBits/(Pixel*Frame)               : 0.273\nStream size                      : 1.43 GiB (92%)\nWriting library                  : XviD 64\n\nAudio\nID                               : 1\nFormat                           : MPEG Audio\nFormat version                   : Version 1\nFormat profile                   : Layer 3\nMode                             : Joint stereo\nMode extension                   : MS Stereo\nCodec ID                         : 55\nCodec ID/Hint                    : MP3\nDuration                         : 2h 17mn\nBit rate mode                    : Constant\nBit rate                         : 128 Kbps\nChannel(s)                       : 2 channels\nSampling rate                    : 48.0 KHz\nCompression mode                 : Lossy\nStream size                      : 126 MiB (8%)\nAlignment                        : Split accross interleaves\nInterleave, duration             : 40 ms (1.00 video frame)\nInterleave, preload duration     : 500 ms\n\n\nIMDB: &lt;a href=&quot; http://www.imdb.com/title/tt1074638/&quot; rel=&quot;nofollow&quot; target=&quot;_NEW&quot;&gt; http://www.imdb.com/title/tt1074638/&lt;/a&gt;\n\n\n\nBond's loyalty to M is tested as her past comes back to haunt her. As MI6 comes under attack, 007 must track down and destroy the threat, no matter how personal the cost.\n\n\n\n\nVideo - Dam nice cam thats for sure ....some glares here and there and some colour issues now and again,but otherwise very nice Q.\nAudio - once again jiinx comes up with the goods Audio was nice,contains some hiss though,but better than whats out otherwise. ( at the time of writing this of course )\n\nWORKDONE:\nFirst loaded ilgs video into vdub and upscaled it to 720 x,then i used a HQ smoother to remove the noise that was there.\nAfter i tweaked the contrast,brightness,rgb colours,sat and used the intes to lower the glares....so yes some parts do look duller....but at least you dont need to wear sunglasses now.\nAfter all done it was a case of adding some sharpness back ,to get it that extra life.\n\nAudio stripped uniques syncd audio ( good work ) and dropped it in AA....then i changed the eq bands and lowered the ones with the hiss,however to remove ALL the hissing would have killed the audio even more so i opted to remove a high % of it and in some parts its totally gone.\nThen i just saved as mp3 and remuxed.\n\nEnjoy folks   :)\n\n\nScreens\n &lt;a href=&quot;\nhttp://i.imgrz.com/JfcqD.png&quot; rel=&quot;nofollow&quot; target=&quot;_NEW&quot;&gt;\nhttp://i.imgrz.com/JfcqD.png&lt;/a&gt; &lt;a href=&quot;\nhttp://i.imgrz.com/hLZG9.png&quot; rel=&quot;nofollow&quot; target=&quot;_NEW&quot;&gt;\nhttp://i.imgrz.com/hLZG9.png&lt;/a&gt;\n","torrent":{"xt":"urn:btih:6850305104b00a67bcca3ad568cc2a8d65570891","amp;dn":"Skyfall+2012+TS+XViD+-+INSPiRAL","amp;tr":["udp%3A%2F%2Ftracker.openbittorrent.com%3A80","udp%3A%2F%2Fopen.demonii.com%3A1337","udp%3A%2F%2Ftracker.coppersurfer.tk%3A6969","udp%3A%2F%2Fexodus.desync.com%3A6969"],"infoHash":"6850305104b00a67bcca3ad568cc2a8d65570891","infoHashBuffer":{"type":"Buffer","data":[104,80,48,81,4,176,10,103,188,202,58,213,104,204,42,141,101,87,8,145]},"announce":[],"urlList":[]}}